<svg xmlns="http://www.w3.org/2000/svg" xmlns:xlink="http://www.w3.org/1999/xlink" width="500" zoomAndPan="magnify" viewBox="0 0 375 374.999991" height="500" preserveAspectRatio="xMidYMid meet" version="1.2"><defs><clipPath id="97b1986d66"><path d="M 65.277344 97 L 194 97 L 194 324.75 L 65.277344 324.75 Z M 65.277344 97 "/></clipPath><clipPath id="07aa8d38a9"><path d="M 186 97 L 309.777344 97 L 309.777344 324.75 L 186 324.75 Z M 186 97 "/></clipPath><clipPath id="c8712fa164"><path d="M 65.277344 37.5 L 309.777344 37.5 L 309.777344 167 L 65.277344 167 Z M 65.277344 37.5 "/></clipPath><clipPath id="f8669aeb63"><path d="M 272 137 L 307 137 L 307 162 L 272 162 Z M 272 137 "/></clipPath><clipPath id="e24a8590cc"><path d="M 154.402344 52.273438 L 321.941406 124.015625 L 232.78125 332.230469 L 65.246094 260.488281 Z M 154.402344 52.273438 "/></clipPath><clipPath id="e86b2bab28"><path d="M 154.167969 52.175781 L 321.703125 123.914062 L 232.546875 332.128906 L 65.007812 260.386719 Z M 154.167969 52.175781 "/></clipPath><clipPath id="1a6c38410f"><path d="M 132.765625 43.011719 L 321.675781 123.902344 L 232.519531 332.117188 L 43.609375 251.226562 Z M 132.765625 43.011719 "/></clipPath><clipPath id="733b9654a1"><path d="M 65 107 L 207 107 L 207 286 L 65 286 Z M 65 107 "/></clipPath><clipPath id="e91003f39c"><path d="M 154.402344 52.273438 L 321.941406 124.015625 L 232.78125 332.230469 L 65.246094 260.488281 Z M 154.402344 52.273438 "/></clipPath><clipPath id="c8f4209108"><path d="M 154.167969 52.175781 L 321.703125 123.914062 L 232.546875 332.128906 L 65.007812 260.386719 Z M 154.167969 52.175781 "/></clipPath><clipPath id="c28a924344"><path d="M 132.765625 43.011719 L 321.675781 123.902344 L 232.519531 332.117188 L 43.609375 251.226562 Z M 132.765625 43.011719 "/></clipPath><clipPath id="810aa6f450"><path d="M 260 168 L 290 168 L 290 196 L 260 196 Z M 260 168 "/></clipPath><clipPath id="5bfbe28280"><path d="M 154.402344 52.273438 L 321.941406 124.015625 L 232.78125 332.230469 L 65.246094 260.488281 Z M 154.402344 52.273438 "/></clipPath><clipPath id="8cc772018f"><path d="M 154.167969 52.175781 L 321.703125 123.914062 L 232.546875 332.128906 L 65.007812 260.386719 Z M 154.167969 52.175781 "/></clipPath><clipPath id="388dfa0f16"><path d="M 132.765625 43.011719 L 321.675781 123.902344 L 232.519531 332.117188 L 43.609375 251.226562 Z M 132.765625 43.011719 "/></clipPath><clipPath id="0339a5277c"><path d="M 249 193 L 274 193 L 274 218 L 249 218 Z M 249 193 "/></clipPath><clipPath id="2be269185a"><path d="M 154.402344 52.273438 L 321.941406 124.015625 L 232.78125 332.230469 L 65.246094 260.488281 Z M 154.402344 52.273438 "/></clipPath><clipPath id="18e6ffe649"><path d="M 154.167969 52.175781 L 321.703125 123.914062 L 232.546875 332.128906 L 65.007812 260.386719 Z M 154.167969 52.175781 "/></clipPath><clipPath id="1680b8c8c1"><path d="M 132.765625 43.011719 L 321.675781 123.902344 L 232.519531 332.117188 L 43.609375 251.226562 Z M 132.765625 43.011719 "/></clipPath><clipPath id="4af5063c4e"><path d="M 239 217 L 259 217 L 259 240 L 239 240 Z M 239 217 "/></clipPath><clipPath id="523c2400d2"><path d="M 154.402344 52.273438 L 321.941406 124.015625 L 232.78125 332.230469 L 65.246094 260.488281 Z M 154.402344 52.273438 "/></clipPath><clipPath id="73adb5d3ec"><path d="M 154.167969 52.175781 L 321.703125 123.914062 L 232.546875 332.128906 L 65.007812 260.386719 Z M 154.167969 52.175781 "/></clipPath><clipPath id="d4ddb4e4dd"><path d="M 132.765625 43.011719 L 321.675781 123.902344 L 232.519531 332.117188 L 43.609375 251.226562 Z M 132.765625 43.011719 "/></clipPath><clipPath id="7ddea32645"><path d="M 151 81 L 286 81 L 286 257 L 151 257 Z M 151 81 "/></clipPath><clipPath id="9b6488c181"><path d="M 154.402344 52.273438 L 321.941406 124.015625 L 232.78125 332.230469 L 65.246094 260.488281 Z M 154.402344 52.273438 "/></clipPath><clipPath id="52480091a8"><path d="M 154.167969 52.175781 L 321.703125 123.914062 L 232.546875 332.128906 L 65.007812 260.386719 Z M 154.167969 52.175781 "/></clipPath><clipPath id="f857f1a41c"><path d="M 132.765625 43.011719 L 321.675781 123.902344 L 232.519531 332.117188 L 43.609375 251.226562 Z M 132.765625 43.011719 "/></clipPath></defs><g id="e98bdfc1dc"><g clip-rule="nonzero" clip-path="url(#97b1986d66)"><path style=" stroke:none;fill-rule:nonzero;fill:#131212;fill-opacity:1;" d="M 72.363281 257.003906 L 186.957031 315.507812 L 186.957031 164.949219 L 72.363281 106.449219 Z M 190.472656 324.761719 C 189.925781 324.761719 189.375 324.632812 188.871094 324.378906 L 67.25 262.285156 C 66.074219 261.6875 65.332031 260.472656 65.332031 259.152344 L 65.332031 100.703125 C 65.332031 99.484375 65.972656 98.34375 67.015625 97.703125 C 68.046875 97.066406 69.363281 97.027344 70.449219 97.574219 L 192.074219 159.671875 C 193.246094 160.265625 193.988281 161.480469 193.988281 162.800781 L 193.988281 321.246094 C 193.988281 322.46875 193.347656 323.609375 192.304688 324.246094 C 191.75 324.589844 191.113281 324.761719 190.472656 324.761719 "/></g><g clip-rule="nonzero" clip-path="url(#07aa8d38a9)"><path style=" stroke:none;fill-rule:nonzero;fill:#131212;fill-opacity:1;" d="M 193.988281 164.902344 L 193.988281 315.371094 L 302.691406 257.050781 L 302.691406 106.585938 Z M 190.472656 324.761719 C 189.847656 324.761719 189.222656 324.597656 188.664062 324.261719 C 187.609375 323.628906 186.957031 322.480469 186.957031 321.246094 L 186.957031 162.800781 C 186.957031 161.503906 187.667969 160.3125 188.8125 159.703125 L 304.546875 97.609375 C 305.636719 97.015625 306.945312 97.046875 308.011719 97.691406 C 309.070312 98.320312 309.71875 99.46875 309.71875 100.703125 L 309.71875 259.152344 C 309.71875 260.449219 309.003906 261.640625 307.867188 262.25 L 192.132812 324.34375 C 191.609375 324.625 191.042969 324.761719 190.472656 324.761719 "/></g><g clip-rule="nonzero" clip-path="url(#c8712fa164)"><path style=" stroke:none;fill-rule:nonzero;fill:#131212;fill-opacity:1;" d="M 76.558594 100.691406 L 190.429688 158.832031 L 298.5 100.851562 L 184.621094 45.085938 Z M 190.472656 166.3125 C 189.925781 166.3125 189.375 166.183594 188.871094 165.933594 L 67.25 103.835938 C 66.074219 103.238281 65.332031 102.027344 65.332031 100.714844 C 65.332031 99.394531 66.066406 98.183594 67.242188 97.582031 L 182.976562 38.027344 C 183.964844 37.515625 185.136719 37.496094 186.125 37.992188 L 307.75 97.546875 C 308.9375 98.128906 309.695312 99.316406 309.71875 100.640625 C 309.742188 101.964844 309.03125 103.175781 307.867188 103.800781 L 192.132812 165.898438 C 191.621094 166.175781 191.042969 166.3125 190.472656 166.3125 "/></g><g clip-rule="nonzero" clip-path="url(#f8669aeb63)"><g clip-rule="nonzero" clip-path="url(#e24a8590cc)"><g clip-rule="nonzero" clip-path="url(#e86b2bab28)"><g clip-rule="nonzero" clip-path="url(#1a6c38410f)"><path style=" stroke:none;fill-rule:nonzero;fill:#000000;fill-opacity:1;" d="M 306.761719 151.40625 C 307.367188 145.253906 302.882812 139.796875 296.746094 139.214844 L 282.1875 137.839844 L 272.933594 159.449219 L 294.582031 161.5 C 300.707031 162.078125 306.167969 157.558594 306.761719 151.40625 Z M 306.761719 151.40625 "/></g></g></g></g><g clip-rule="nonzero" clip-path="url(#733b9654a1)"><g clip-rule="nonzero" clip-path="url(#e91003f39c)"><g clip-rule="nonzero" clip-path="url(#c8f4209108)"><g clip-rule="nonzero" clip-path="url(#c28a924344)"><path style=" stroke:none;fill-rule:nonzero;fill:#000000;fill-opacity:1;" d="M 148.035156 213.152344 L 152.644531 202.386719 L 152.617188 202.351562 C 152.617188 202.351562 152.695312 202.230469 152.824219 201.964844 L 153.460938 200.472656 C 154.765625 197.070312 157.09375 188.914062 156.570312 174.6875 C 156.308594 167.464844 153.273438 159.867188 151.671875 156.335938 L 181.648438 130.898438 C 187.472656 125.660156 187.992188 116.699219 182.8125 110.871094 C 177.625 105.050781 174.40625 106.542969 167.503906 111.78125 L 122.726562 143.875 L 122.460938 144.128906 L 114.828125 149.535156 L 99.324219 211.585938 L 44.417969 251.570312 L 124.28125 285.769531 L 151.09375 266.425781 C 158.597656 268.167969 175.9375 270.332031 199.441406 261.683594 C 201.757812 260.832031 203.65625 259.625 206.003906 258.058594 L 157 237.078125 C 147.84375 233.15625 144.082031 222.378906 148.035156 213.152344 Z M 148.035156 213.152344 "/></g></g></g></g><g clip-rule="nonzero" clip-path="url(#810aa6f450)"><g clip-rule="nonzero" clip-path="url(#5bfbe28280)"><g clip-rule="nonzero" clip-path="url(#8cc772018f)"><g clip-rule="nonzero" clip-path="url(#388dfa0f16)"><path style=" stroke:none;fill-rule:nonzero;fill:#000000;fill-opacity:1;" d="M 283.074219 174.925781 L 268.90625 168.859375 L 260.273438 189.015625 L 274.441406 195.085938 C 279.957031 197.445312 286.359375 194.84375 288.742188 189.277344 C 291.125 183.714844 288.589844 177.285156 283.074219 174.925781 Z M 283.074219 174.925781 "/></g></g></g></g><g clip-rule="nonzero" clip-path="url(#0339a5277c)"><g clip-rule="nonzero" clip-path="url(#2be269185a)"><g clip-rule="nonzero" clip-path="url(#18e6ffe649)"><g clip-rule="nonzero" clip-path="url(#1680b8c8c1)"><path style=" stroke:none;fill-rule:nonzero;fill:#000000;fill-opacity:1;" d="M 267.042969 196.6875 L 258.550781 193.046875 L 249.917969 213.207031 L 258.410156 216.84375 C 264.09375 219.277344 270.636719 216.738281 273.019531 211.171875 C 275.398438 205.609375 272.726562 199.117188 267.042969 196.6875 Z M 267.042969 196.6875 "/></g></g></g></g><g clip-rule="nonzero" clip-path="url(#4af5063c4e)"><g clip-rule="nonzero" clip-path="url(#523c2400d2)"><g clip-rule="nonzero" clip-path="url(#73adb5d3ec)"><g clip-rule="nonzero" clip-path="url(#d4ddb4e4dd)"><path style=" stroke:none;fill-rule:nonzero;fill:#000000;fill-opacity:1;" d="M 251.460938 218.640625 L 248.1875 217.238281 L 239.554688 237.398438 L 242.832031 238.800781 C 248.429688 241.199219 254.910156 238.628906 257.292969 233.066406 C 259.671875 227.5 257.066406 221.042969 251.460938 218.640625 Z M 251.460938 218.640625 "/></g></g></g></g><g clip-rule="nonzero" clip-path="url(#7ddea32645)"><g clip-rule="nonzero" clip-path="url(#9b6488c181)"><g clip-rule="nonzero" clip-path="url(#52480091a8)"><g clip-rule="nonzero" clip-path="url(#f857f1a41c)"><path style=" stroke:none;fill-rule:evenodd;fill:#000000;fill-opacity:1;" d="M 227.707031 236.445312 L 163.878906 209.113281 L 214.285156 91.394531 L 278.113281 118.726562 Z M 189.128906 237.429688 C 186.734375 236.402344 185.636719 233.609375 186.667969 231.199219 C 187.703125 228.785156 190.476562 227.660156 192.871094 228.6875 C 195.261719 229.710938 196.363281 232.496094 195.332031 234.910156 C 194.296875 237.320312 191.519531 238.453125 189.128906 237.429688 Z M 242.855469 94.484375 L 256.628906 100.382812 C 257.546875 100.777344 257.976562 101.847656 257.582031 102.777344 C 257.183594 103.703125 256.109375 104.132812 255.191406 103.742188 L 241.414062 97.84375 C 240.496094 97.449219 240.074219 96.375 240.46875 95.449219 C 240.867188 94.523438 241.933594 94.089844 242.855469 94.484375 Z M 277.351562 104.882812 L 224.167969 82.109375 C 217.550781 79.277344 209.867188 82.394531 207.007812 89.074219 L 152.914062 215.398438 C 150.050781 222.085938 153.097656 229.800781 159.714844 232.632812 L 212.894531 255.40625 C 219.515625 258.242188 227.203125 255.125 230.066406 248.4375 L 284.160156 122.109375 C 287.019531 115.433594 283.964844 107.714844 277.351562 104.882812 Z M 277.351562 104.882812 "/></g></g></g></g></g></svg>